{
    "asset" : {
        "generator" : "Khronos glTF Blender I/O v1.5.17",
        "version" : "2.0"
    },
    "scene" : 0,
    "scenes" : [
        {
            "name" : "Scene",
            "nodes" : [
                0
            ]
        }
    ],
    "nodes" : [
        {
            "mesh" : 0,
            "name" : "man_statue.004",
            "rotation" : [
                0.7071068286895752,
                0,
                0,
                0.7071067094802856
            ],
            "translation" : [
                0.021513083949685097,
                -0.20070905983448029,
                5.952246189117432
            ]
        }
    ],
    "materials" : [
        {
            "doubleSided" : true,
            "name" : "palette.005",
            "pbrMetallicRoughness" : {
                "baseColorTexture" : {
                    "index" : 0
                },
                "metallicFactor" : 0
            }
        }
    ],
    "meshes" : [
        {
            "name" : "man_statue.004",
            "primitives" : [
                {
                    "attributes" : {
                        "POSITION" : 0,
                        "NORMAL" : 1,
                        "TEXCOORD_0" : 2
                    },
                    "indices" : 3,
                    "material" : 0
                }
            ]
        }
    ],
    "textures" : [
        {
            "sampler" : 0,
            "source" : 0
        }
    ],
    "images" : [
        {
            "bufferView" : 4,
            "mimeType" : "image/png",
            "name" : "man_statue"
        }
    ],
    "accessors" : [
        {
            "bufferView" : 0,
            "componentType" : 5126,
            "count" : 1907,
            "max" : [
                2.278486967086792,
                3.447753429412842,
                1.9992918968200684
            ],
            "min" : [
                -2.3215129375457764,
                -5.952246189117432,
                -1.9007081985473633
            ],
            "type" : "VEC3"
        },
        {
            "bufferView" : 1,
            "componentType" : 5126,
            "count" : 1907,
            "type" : "VEC3"
        },
        {
            "bufferView" : 2,
            "componentType" : 5126,
            "count" : 1907,
            "type" : "VEC2"
        },
        {
            "bufferView" : 3,
            "componentType" : 5123,
            "count" : 3576,
            "type" : "SCALAR"
        }
    ],
    "bufferViews" : [
        {
            "buffer" : 0,
            "byteLength" : 22884,
            "byteOffset" : 0
        },
        {
            "buffer" : 0,
            "byteLength" : 22884,
            "byteOffset" : 22884
        },
        {
            "buffer" : 0,
            "byteLength" : 15256,
            "byteOffset" : 45768
        },
        {
            "buffer" : 0,
            "byteLength" : 7152,
            "byteOffset" : 61024
        },
        {
            "buffer" : 0,
            "byteLength" : 157,
            "byteOffset" : 68176
        }
    ],
    "samplers" : [
        {
            "magFilter" : 9729,
            "minFilter" : 9987
        }
    ],
    "buffers" : [
        {
            "byteLength" : 68336,
            "uri" : "data:application/octet-stream;base64,"
        }
    ]
}
