# MagicaVoxel @ Ephtracy

# group
o 

# material
mtllib lantern.mtl
usemtl palette

# normals
vn -1 0 0
vn 1 0 0
vn 0 0 1
vn 0 0 -1
vn 0 -1 0
vn 0 1 0

# texcoords
vt 0.970703 0.5
vt 0.974609 0.5

# verts
v -0.5 0 0.3
v -0.5 0 -0.3
v -0.5 0.1 0.3
v -0.5 0.1 -0.3
v -0.4 0.1 0.2
v -0.4 0.1 -0.2
v -0.4 6.5 0.2
v -0.4 6.5 -0.2
v -0.1 0.1 0.2
v -0.1 0.1 -0.2
v -0.1 6.2 0.1
v -0.1 6.2 -0.1
v -0.1 6.3 0.2
v -0.1 6.3 0.1
v -0.1 6.3 -0.1
v -0.1 6.3 -0.2
v 0 0 0.3
v 0 0 -0.3
v 0 0.1 0.3
v 0 0.1 -0.3
v 0.7 6.2 0.1
v 0.7 6.2 -0.1
v 0.7 6.3 0.1
v 0.7 6.3 -0.1
v 0.8 6.3 0.2
v 0.8 6.3 -0.2
v 0.8 6.5 0.2
v 0.8 6.5 -0.2
v -0.5 0 0.3
v -0.5 0.1 0.3
v 0 0 0.3
v 0 0.1 0.3
v -0.4 0.1 0.2
v -0.4 6.5 0.2
v -0.1 0.1 0.2
v -0.1 6.3 0.2
v 0.8 6.3 0.2
v 0.8 6.5 0.2
v -0.1 6.2 0.1
v -0.1 6.3 0.1
v 0.7 6.2 0.1
v 0.7 6.3 0.1
v -0.1 6.2 -0.1
v -0.1 6.3 -0.1
v 0.7 6.2 -0.1
v 0.7 6.3 -0.1
v -0.4 0.1 -0.2
v -0.4 6.5 -0.2
v -0.1 0.1 -0.2
v -0.1 6.3 -0.2
v 0.8 6.3 -0.2
v 0.8 6.5 -0.2
v -0.5 0 -0.3
v -0.5 0.1 -0.3
v 0 0 -0.3
v 0 0.1 -0.3
v -0.5 0 0.3
v 0 0 0.3
v -0.5 0 -0.3
v 0 0 -0.3
v -0.1 6.2 0.1
v 0.7 6.2 0.1
v -0.1 6.2 -0.1
v 0.7 6.2 -0.1
v -0.1 6.3 0.2
v 0.8 6.3 0.2
v -0.1 6.3 0.1
v 0.7 6.3 0.1
v -0.1 6.3 -0.1
v 0.7 6.3 -0.1
v -0.1 6.3 -0.2
v 0.8 6.3 -0.2
v -0.5 0.1 0.3
v 0 0.1 0.3
v -0.4 0.1 0.2
v -0.1 0.1 0.2
v -0.4 0.1 -0.2
v -0.1 0.1 -0.2
v -0.5 0.1 -0.3
v 0 0.1 -0.3
v -0.4 6.5 0.2
v 0.8 6.5 0.2
v -0.4 6.5 -0.2
v 0.8 6.5 -0.2

# faces
f 3/1/1 2/1/1 1/1/1
f 4/1/1 2/1/1 3/1/1
f 7/1/1 6/1/1 5/1/1
f 8/1/1 6/1/1 7/1/1
f 9/1/2 10/1/2 11/1/2
f 11/1/2 10/1/2 12/1/2
f 9/1/2 11/1/2 13/1/2
f 13/1/2 11/1/2 14/1/2
f 12/1/2 10/1/2 15/1/2
f 15/1/2 10/1/2 16/1/2
f 17/1/2 18/1/2 19/1/2
f 19/1/2 18/1/2 20/1/2
f 21/2/2 22/2/2 23/2/2
f 23/2/2 22/2/2 24/2/2
f 25/1/2 26/1/2 27/1/2
f 27/1/2 26/1/2 28/1/2
f 31/1/3 30/1/3 29/1/3
f 32/1/3 30/1/3 31/1/3
f 35/1/3 34/1/3 33/1/3
f 36/1/3 34/1/3 35/1/3
f 37/1/3 34/1/3 36/1/3
f 38/1/3 34/1/3 37/1/3
f 41/2/3 40/2/3 39/2/3
f 42/2/3 40/2/3 41/2/3
f 43/2/4 44/2/4 45/2/4
f 45/2/4 44/2/4 46/2/4
f 47/1/4 48/1/4 49/1/4
f 49/1/4 48/1/4 50/1/4
f 50/1/4 48/1/4 51/1/4
f 51/1/4 48/1/4 52/1/4
f 53/1/4 54/1/4 55/1/4
f 55/1/4 54/1/4 56/1/4
f 59/1/5 58/1/5 57/1/5
f 60/1/5 58/1/5 59/1/5
f 63/2/5 62/2/5 61/2/5
f 64/2/5 62/2/5 63/2/5
f 67/1/5 66/1/5 65/1/5
f 68/1/5 66/1/5 67/1/5
f 70/1/5 66/1/5 68/1/5
f 71/1/5 70/1/5 69/1/5
f 72/1/5 66/1/5 70/1/5
f 72/1/5 70/1/5 71/1/5
f 73/1/6 74/1/6 75/1/6
f 75/1/6 74/1/6 76/1/6
f 73/1/6 75/1/6 77/1/6
f 76/1/6 74/1/6 78/1/6
f 73/1/6 77/1/6 79/1/6
f 77/1/6 78/1/6 79/1/6
f 78/1/6 74/1/6 80/1/6
f 79/1/6 78/1/6 80/1/6
f 81/1/6 82/1/6 83/1/6
f 83/1/6 82/1/6 84/1/6
